<svg version="1" xmlns="http://www.w3.org/2000/svg" width="666.667" height="666.667"
     viewBox="0 0 500.000000 500.000000">
    <path d="M192.5 38.7c-35.8 2.9-50.2 6-67.3 14.4-9.5 4.7-21.1 14.9-27.1 23.8-19 28-28.1 72.4-28.1 137.6 0 18.2 3.1 53.3 6 68.5 7 36.8 26.7 63.8 57.7 79.5 39 19.6 109.3 29.1 163.3 22 57.9-7.7 94.2-31.7 112.5-74.6 10-23.3 16.3-60.4 17.2-100.4 1-48.1-4-84.1-14.7-106-10.6-21.7-29-37.1-53.5-44.8-17.1-5.3-57.2-13.4-83-16.7-26.4-3.4-64.3-4.9-83-3.3zm49 1.3c32.9 2.2 70.7 8.2 103.1 16.5 13.7 3.5 20.2 5.7 27.9 9.5 27.2 13.6 42.1 35.3 48 70 10.9 63.6 4.3 140.5-15.5 180.1-15.9 32-42.9 52.3-82.8 62.3-33 8.3-86.4 9-126.3 1.7-58.8-10.8-90-29.5-107.4-64.1-8.3-16.6-11.2-28.9-15.1-64.5-2.4-21.7-2.6-26.2-2-46.5 1.2-39.9 3.4-60.1 9.1-82.6 13.9-55.3 38.5-75.6 99-81.3 23.4-2.2 40.3-2.5 62-1.1z"/>
    <path d="M184 47.1c-55.3 5-79.4 22.2-93.9 66.9-11.5 35.6-15.3 91.1-9.6 141.6 3.7 32.4 8.4 49.1 18.6 64.8 19.6 30.6 51.3 46.4 111.9 55.8 19.6 3 66.2 3.2 86.5.4 47.4-6.5 79.3-25.2 98.6-57.6 10.2-17.2 17.5-44.7 22.1-82.5 1.6-13.5 1.6-58.2 0-72-4.9-41.3-10.9-59.1-25.6-75.1-9.8-10.9-21.4-18.1-37.6-23.6-19.2-6.5-67.1-15.5-96.9-18.3-17.4-1.6-58.8-1.8-74.1-.4zm76 1.9c24.6 2.4 65.5 9.9 87.8 16.1 31.1 8.7 50.4 25.8 60.1 53.3 10.3 29.3 13.3 89.7 6.6 134.8-4.8 32.2-11.6 53.1-22.8 70.1-11.2 16.9-24.1 28-43.1 37.2-20.1 9.7-40.8 14.5-70.6 16.7-55.7 3.9-120.3-8.6-150.7-29.3-11.5-7.8-25.8-24-32-36.4-3.3-6.4-7.9-20.3-9.7-29-2.6-13-6.6-52.1-6.6-65 0-27.7 2.5-59.7 6-78.1 10.1-52.2 29.8-76.9 68.8-86.3 7.1-1.8 25.7-4.6 36.2-5.5 8.3-.7 58.4.3 70 1.4z"/>
    <path d="M132.9 66.4c-31.8 11.2-42 48.9-20.6 75.8 4 5 13.4 11.4 20.4 14 12.3 4.5 30.7 2.3 41.2-4.8l3.6-2.4 13.8 13.8 13.8 13.8-3.5 5.2c-15.2 22.6-11.6 53.6 8.5 73.4l5.8 5.7-7.6 13.5-7.7 13.6-3.5-.7c-2-.5-6.6-.7-10.3-.6-15.2.4-28.5 10-34 24.5-3 8-2.3 21.2 1.5 29 3.5 7 9.6 13.3 16.8 17.3 4.6 2.5 6.8 3 14.5 3.3 15.5.7 25.6-4.1 33.6-15.8 9.5-14 8.3-33.3-3.1-46.2-1.7-2-3.1-3.9-3.1-4.3 0-.4 3.3-6.5 7.3-13.7 6-10.8 7.5-12.8 9.2-12.4 18.9 4.3 23.5 4.5 34.9 1.6 11-2.8 19-7.4 27.2-15.6 5.2-5.2 8.1-9.1 10.7-14.5 4.9-10.3 6-15 6-26.1v-9.6l11.6-3.2c6.4-1.7 15.2-4.2 19.6-5.5l8-2.3 2 2.6c5.9 7.9 12.6 11.3 21.9 11.3 10.6 0 18.5-4.5 23.6-13.4 5.9-10.4 4.7-22.8-3.3-31.4-5.2-5.7-10.5-8.4-17.9-9-13.5-1.3-25.6 8-28.3 21.6l-1.1 5.5-17.5 4.8c-24.9 6.8-22.3 6.6-24.9 1.6-15.4-29.8-52.9-40.5-81.6-23.2l-5.8 3.5-13.7-13.7-13.7-13.7 2.8-5.1c14.6-26.2 1.3-59.9-27.1-68.7-8.8-2.8-21.4-2.5-30 .5zM176.4 404.4c-.3.8-.4 2.7-.2 4.3l.3 2.8 12.3.3 12.2.3V477h10v-65h24v-9h-29c-24.1 0-29.2.2-29.6 1.4zM245 440v37h9v-74h-9v37zM282.5 404.8c-7.5 3.6-10.5 8.6-10.5 17.8 0 9 3.4 13.5 13.5 17.9 3.3 1.5 8.1 3.6 10.7 4.7 2.6 1.2 5.7 3.1 6.8 4.3 4.8 5.2 2.9 14.9-3.5 17.9-6.7 3.2-15 1.6-21.7-4.2l-3.5-3.1-2.9 3-2.9 3.1 4.3 3.9c18.7 16.6 46 5.1 41.8-17.6-1.4-7.3-10.1-14.4-23.4-19.1-7.1-2.5-10.2-5.6-10.2-10.3 0-4.6 3.2-9.9 6.5-10.7 4.5-1.1 12.4.2 15.7 2.6l3 2.2 2.4-2.8c1.3-1.6 2.2-3.4 2-3.9-.1-.6-2.4-2.3-4.9-3.9-6.3-3.9-17.1-4.7-23.2-1.8z"/>
</svg>