<?xml version="1.0" standalone="no"?>
<!DOCTYPE svg PUBLIC "-//W3C//DTD SVG 20010904//EN"
 "http://www.w3.org/TR/2001/REC-SVG-20010904/DTD/svg10.dtd">
<svg version="1.0" xmlns="http://www.w3.org/2000/svg"
 width="256.000000pt" height="256.000000pt" viewBox="0 0 256.000000 256.000000"
 preserveAspectRatio="xMidYMid meet">
<metadata>
Created by potrace 1.11, written by Peter Selinger 2001-2013
</metadata>
<g transform="translate(0.000000,256.000000) scale(0.100000,-0.100000)"
fill="#000000" stroke="none">
<path d="M10 1280 l0 -1070 1275 0 1275 0 0 1070 0 1070 -1275 0 -1275 0 0
-1070z m693 834 c75 -26 137 -111 137 -189 0 -46 -24 -102 -60 -138 l-38 -37
28 -15 c108 -56 133 -224 48 -321 -62 -70 -91 -79 -294 -82 -161 -3 -182 -2
-195 14 -11 14 -15 77 -17 341 l-3 323 -35 0 -34 0 0 60 0 60 208 0 c164 0
218 -3 255 -16z m460 -2 c13 -14 17 -46 19 -162 l3 -145 45 -3 c26 -2 52 3 62
10 9 7 53 82 98 166 l82 152 80 0 80 0 -30 -52 c-16 -29 -59 -108 -96 -174
-37 -67 -76 -130 -87 -140 -19 -17 -19 -18 2 -40 11 -12 49 -77 83 -145 55
-110 65 -124 94 -131 31 -8 32 -10 32 -63 l0 -55 -69 0 c-51 0 -74 5 -90 18
-11 9 -54 84 -95 166 -41 82 -81 153 -88 157 -7 5 -34 9 -60 9 l-48 0 0 -175
0 -175 -70 0 -70 0 0 328 c0 180 -4 332 -8 339 -4 6 -21 13 -37 15 -29 3 -30
5 -33 61 l-3 57 94 0 c78 0 97 -3 110 -18z m1018 -9 c80 -41 113 -93 117 -188
2 -41 -1 -89 -8 -110 -15 -44 -65 -103 -98 -116 -24 -9 -24 -10 -6 -30 11 -12
39 -60 64 -107 43 -82 53 -94 93 -106 13 -4 17 -17 17 -61 l0 -55 -70 0 c-88
0 -91 3 -170 159 -33 66 -68 125 -79 131 -11 5 -45 10 -75 10 l-56 0 0 -150 0
-150 -70 0 -70 0 0 340 0 340 -40 0 -40 0 0 60 0 60 218 0 218 0 55 -27z
m-361 -874 c98 -22 140 -61 140 -129 0 -23 -4 -30 -20 -30 -14 0 -20 7 -20 23
0 50 -51 90 -131 102 -65 10 -126 -10 -171 -55 -33 -33 -38 -44 -38 -84 0 -88
28 -116 201 -199 141 -67 189 -124 189 -220 0 -55 -20 -104 -57 -141 -49 -49
-81 -61 -168 -61 -67 0 -89 5 -136 28 -30 14 -65 37 -77 50 -20 21 -21 26 -8
36 12 10 21 8 48 -13 85 -64 177 -82 253 -47 113 51 138 183 49 260 -19 17
-85 56 -147 87 -61 30 -125 67 -141 82 -58 55 -71 134 -35 209 24 51 65 82
128 99 57 16 84 16 141 3z m-1092 -21 c9 -9 12 -102 12 -359 0 -283 3 -349 14
-358 9 -8 65 -11 177 -9 l164 3 3 38 c3 29 7 37 23 37 16 0 19 -7 19 -44 0
-72 -13 -76 -215 -76 -117 0 -178 4 -195 13 l-25 13 -5 354 -5 355 -32 10
c-18 5 -33 15 -33 22 0 17 81 18 98 1z m672 -6 c0 -13 -8 -17 -32 -17 l-33 0
-3 -352 -2 -353 35 0 c28 0 35 -4 35 -20 0 -19 -7 -20 -89 -20 -50 0 -92 4
-95 8 -9 15 9 30 39 34 l30 3 0 350 0 350 -37 3 c-25 2 -38 8 -38 18 0 11 19
14 95 14 84 0 95 -2 95 -18z"/>
<path d="M460 1905 l0 -105 75 0 c86 0 121 13 141 51 24 47 18 97 -15 130 -28
28 -34 29 -115 29 l-86 0 0 -105z"/>
<path d="M460 1571 c0 -115 1 -119 23 -125 65 -17 169 1 205 37 32 32 41 101
18 145 -25 48 -62 62 -161 62 l-85 0 0 -119z"/>
<path d="M1910 1880 l0 -130 78 0 c85 0 115 11 146 53 25 34 28 110 6 151 -22
42 -59 56 -150 56 l-80 0 0 -130z"/>
</g>
</svg>
